<svg width="24" height="24" viewBox="0 0 24 24" fill="#F3EDF3" xmlns="http://www.w3.org/2000/svg">
<path d="M2.42206 20.2572C3.36345 20.2572 4.30818 20.2579 5.24957 20.2579C6.04737 20.2579 6.8454 20.2579 7.64319 20.2579C8.31805 20.2579 8.97632 20.2579 9.66979 20.2579C10.2442 20.2579 10.8188 20.2579 11.3932 20.2579C11.8854 20.2579 12.3863 20.2579 12.8613 20.2579C13.2786 20.2579 13.7061 20.2579 14.106 20.2579C14.4644 20.2579 14.8343 20.2579 15.1751 20.2579C15.4799 20.2579 15.7978 20.2579 16.0847 20.2579C16.3465 20.2579 16.6231 20.2579 16.8666 20.2579C17.1015 20.2579 17.3523 20.2579 17.5687 20.2579C17.7928 20.2579 18.0334 20.2579 18.2389 20.2579C18.4576 20.2579 18.6931 20.2579 18.8932 20.2579C19.0903 20.2579 19.3054 20.2579 19.4836 20.2579C19.6371 20.2579 19.8123 20.2579 19.9464 20.2579C20.0672 20.2579 20.2127 20.2579 20.3134 20.2579C20.4779 20.2579 20.6629 20.2579 20.8081 20.2579C20.9343 20.2579 21.0851 20.2579 21.1914 20.2579C21.3136 20.2483 21.4981 20.2732 21.5777 20.241C21.8274 20.0536 21.827 18.9487 21.5771 18.7426C20.6357 18.7426 19.6909 18.7419 18.7496 18.7419C17.9519 18.7419 17.1537 18.7419 16.356 18.7419C15.6811 18.7419 15.0228 18.7419 14.3294 18.7419C13.755 18.7419 13.1804 18.7419 12.606 18.7419C12.1138 18.7419 11.6128 18.7419 11.1379 18.7419C10.7205 18.7419 10.2931 18.7419 9.89319 18.7419C9.53472 18.7419 9.16483 18.7419 8.82404 18.7419C8.51922 18.7419 8.20135 18.7419 7.91447 18.7419C7.65265 18.7419 7.37614 18.7419 7.13255 18.7419C6.89769 18.7419 6.64684 18.7419 6.43043 18.7419C6.20635 18.7419 5.96574 18.7419 5.76021 18.7419C5.54155 18.7419 5.30603 18.7419 5.10596 18.7419C4.90893 18.7419 4.69373 18.7419 4.51553 18.7419C4.36196 18.7419 4.18689 18.7419 4.05277 18.7419C3.932 18.7419 3.78639 18.7419 3.68574 18.7419C3.52127 18.7419 3.33624 18.7419 3.19106 18.7419C3.06481 18.7419 2.91403 18.7419 2.80777 18.7419C2.6856 18.7515 2.50105 18.7266 2.42139 18.7588C2.17162 18.9462 2.17223 20.0511 2.42206 20.2572Z" />
<path d="M2.42194 16.5072C2.57551 16.5072 2.7538 16.5079 2.88793 16.5079C3.01966 16.5079 3.17537 16.5079 3.28721 16.5079C3.3829 16.4993 3.54407 16.524 3.59438 16.4906C3.64568 16.4599 3.71634 16.4093 3.7256 16.3577C3.77143 15.1934 3.74869 14.0065 3.75762 12.75C3.75762 12.5529 3.75762 12.3377 3.75762 12.1595C3.75762 12.0114 3.75762 11.8412 3.75762 11.7127C3.75762 11.5974 3.75762 11.4566 3.75762 11.3616C3.75762 11.2683 3.75762 11.1467 3.75762 11.0744C3.75762 10.9426 3.75762 10.7873 3.75762 10.6754C3.75762 10.5382 3.75762 10.378 3.75762 10.2605C3.7885 10.1706 3.75759 9.99924 3.78845 9.92947C4.18064 9.7204 4.57185 9.5003 4.99664 9.34267C5.11291 9.31626 5.20667 9.24143 5.27021 9.18196C6.19998 8.83527 6.97616 8.33685 7.86984 7.95405C8.75216 7.56415 9.62752 7.15232 10.4865 6.75739C10.6277 6.71783 10.7909 6.67505 10.8569 6.57937C10.945 6.51386 11.0344 6.43505 11.156 6.4225C11.233 6.38424 11.3466 6.35654 11.4117 6.32665C11.4859 6.31312 11.5488 6.25739 11.6044 6.24638C11.853 5.89575 12.4192 6.16969 12.6012 6.32547C13.1263 6.61415 13.7413 6.81459 14.2617 7.10796C14.6956 7.34417 15.186 7.52569 15.6351 7.74675C16.0943 7.85674 16.3567 8.18294 16.8164 8.27347C17.1614 8.44193 17.4599 8.66339 17.8522 8.76753C18.066 9.07256 18.6943 8.96805 18.8714 9.29256C19.2903 9.36062 19.5295 9.6244 19.8815 9.74188C20.1052 9.72945 20.1876 9.8479 20.222 10.0251C20.2563 10.2024 20.2361 10.4307 20.2417 10.6278C20.2417 10.997 20.2417 11.3771 20.2417 11.7286C20.2417 12.0442 20.2417 12.3724 20.2417 12.6701C20.2417 12.9319 20.2417 13.2084 20.2417 13.452C20.2417 13.6653 20.2417 13.8957 20.2417 14.0903C20.2417 14.2765 20.2417 14.4816 20.2417 14.6488C20.2417 14.8242 20.2417 15.0192 20.2417 15.1754C20.2417 15.3453 20.2417 15.5354 20.2417 15.6861C20.2417 15.8287 20.2417 15.9939 20.2417 16.1169C20.2305 16.2433 20.2442 16.3809 20.3092 16.4109C20.3529 16.4605 20.4194 16.5218 20.5056 16.5079C20.5768 16.5079 20.679 16.5079 20.7284 16.5079C20.8381 16.5079 20.9741 16.5079 21.0635 16.5079C21.2007 16.5079 21.3603 16.5079 21.4777 16.5079C21.6023 16.5281 21.651 16.4383 21.7067 16.4104C21.7918 15.8621 21.7349 15.1453 21.7576 14.5534C21.7576 13.1931 21.7576 11.8465 21.7576 10.468C21.7576 10.3637 21.7576 10.2326 21.7576 10.1488C21.7576 10.0666 21.7576 9.95441 21.7576 9.89352C21.7576 9.80579 21.7576 9.68887 21.7576 9.62224C21.7576 9.45777 21.7576 9.27274 21.7576 9.12756C21.7335 9.03086 21.7214 8.89294 21.693 8.82075C21.2168 8.5353 20.6526 8.31541 20.1734 8.05123C19.3404 7.71415 18.6036 7.27988 17.7794 6.93404C17.0463 6.61731 16.3576 6.24475 15.6254 5.94482C15.073 5.6159 14.4294 5.39148 13.8223 5.09912C13.2848 4.81883 12.7165 4.581 12.161 4.30061C12.0043 4.30844 11.7682 4.2694 11.7216 4.36798C11.191 4.63937 10.6061 4.83629 10.0969 5.14714C9.55563 5.39194 8.99727 5.60379 8.48594 5.89677C7.98162 6.00973 7.69854 6.36252 7.17699 6.43951C6.97343 6.72281 6.4815 6.72914 6.21798 6.9352C6.01908 7.11621 5.61778 7.1074 5.45114 7.30305C5.29519 7.44657 5.0314 7.49039 4.83178 7.57225C4.62265 7.65183 4.49506 7.82425 4.25913 7.85901C3.97682 7.89759 3.8312 8.08795 3.63483 8.19466C3.39877 8.25804 3.16308 8.33791 3.01069 8.46699C2.86715 8.55831 2.65731 8.59527 2.50271 8.6571C2.30183 8.69108 2.26482 8.91809 2.25759 9.12729C2.23664 9.45944 2.24487 9.83256 2.24163 10.1647C2.24163 10.4695 2.24163 10.7875 2.24163 11.0744C2.24163 11.3308 2.24163 11.6022 2.24163 11.8403C2.24163 12.059 2.24163 12.2945 2.24163 12.4946C2.24163 12.6808 2.24163 12.8859 2.24163 13.0531C2.24163 13.2067 2.24163 13.3817 2.24163 13.5159C2.24163 13.7399 2.24163 13.9805 2.24163 14.1861C2.24163 14.3505 2.24163 14.5356 2.24163 14.6808C2.3323 15.2555 2.07834 16.2039 2.42194 16.5072Z" />
<path d="M6.92188 16.5072C7.14594 16.5072 7.38979 16.5079 7.59532 16.5079C7.81939 16.5079 8.06 16.5079 8.26553 16.5079C8.46798 16.5079 8.68824 16.5079 8.87191 16.5079C9.03639 16.5079 9.22141 16.5079 9.3666 16.5079C9.49285 16.5079 9.64333 16.5079 9.74957 16.5079C9.91947 16.5079 10.1095 16.5079 10.2602 16.5079C10.3865 16.5079 10.5369 16.5079 10.6432 16.5079C10.7749 16.5079 10.9319 16.5077 11.0438 16.5077C11.3528 16.3652 11.315 15.2024 11.0773 14.9926C10.8532 14.9926 10.6094 14.9919 10.4038 14.9919C10.1798 14.9919 9.93915 14.9919 9.73362 14.9919C9.53117 14.9919 9.3109 14.9919 9.12723 14.9919C8.96276 14.9919 8.77773 14.9919 8.63255 14.9919C8.5063 14.9919 8.35582 14.9919 8.24957 14.9919C8.07968 14.9919 7.88964 14.9919 7.73894 14.9919C7.61268 14.9919 7.4622 14.9919 7.35596 14.9919C7.22423 14.9919 7.06722 14.9921 6.95538 14.9921C6.64635 15.1345 6.68413 16.2974 6.92188 16.5072Z" />
<path d="M12.9219 16.5072C13.1459 16.5072 13.3898 16.5079 13.5953 16.5079C13.8194 16.5079 14.06 16.5079 14.2655 16.5079C14.468 16.5079 14.6882 16.5079 14.8719 16.5079C15.0364 16.5079 15.2214 16.5079 15.3666 16.5079C15.4929 16.5079 15.6433 16.5079 15.7496 16.5079C15.9195 16.5079 16.1096 16.5079 16.2602 16.5079C16.3864 16.5079 16.5369 16.5079 16.6432 16.5079C16.775 16.5079 16.9319 16.5077 17.0437 16.5077C17.3528 16.3652 17.315 15.2024 17.0772 14.9926C16.8532 14.9926 16.6094 14.9919 16.4038 14.9919C16.1798 14.9919 15.9391 14.9919 15.7336 14.9919C15.5312 14.9919 15.3109 14.9919 15.1272 14.9919C14.9628 14.9919 14.7777 14.9919 14.6326 14.9919C14.5063 14.9919 14.3558 14.9919 14.2496 14.9919C14.0797 14.9919 13.8896 14.9919 13.7389 14.9919C13.6127 14.9919 13.4622 14.9919 13.356 14.9919C13.2242 14.9919 13.0672 14.9921 12.9554 14.9921C12.6463 15.1345 12.6841 16.2974 12.9219 16.5072Z" />
<path d="M6.92188 13.5072C7.14594 13.5072 7.38979 13.5079 7.59532 13.5079C7.81939 13.5079 8.06 13.5079 8.26553 13.5079C8.46798 13.5079 8.68824 13.5079 8.87191 13.5079C9.03639 13.5079 9.22141 13.5079 9.3666 13.5079C9.49285 13.5079 9.64333 13.5079 9.74957 13.5079C9.91947 13.5079 10.1095 13.5079 10.2602 13.5079C10.3865 13.5079 10.5369 13.5079 10.6432 13.5079C10.7749 13.5079 10.9319 13.5077 11.0438 13.5077C11.3528 13.3653 11.315 12.2024 11.0773 11.9926C10.8532 11.9926 10.6094 11.9919 10.4038 11.9919C10.1798 11.9919 9.93915 11.9919 9.73362 11.9919C9.53117 11.9919 9.3109 11.9919 9.12723 11.9919C8.96276 11.9919 8.77773 11.9919 8.63255 11.9919C8.5063 11.9919 8.35582 11.9919 8.24957 11.9919C8.07968 11.9919 7.88964 11.9919 7.73894 11.9919C7.61268 11.9919 7.4622 11.9919 7.35596 11.9919C7.22423 11.9919 7.06722 11.9921 6.95538 11.9921C6.64635 12.1345 6.68413 13.2974 6.92188 13.5072Z" />
<path d="M12.9219 13.5072C13.1459 13.5072 13.3898 13.5079 13.5953 13.5079C13.8194 13.5079 14.06 13.5079 14.2655 13.5079C14.468 13.5079 14.6882 13.5079 14.8719 13.5079C15.0364 13.5079 15.2214 13.5079 15.3666 13.5079C15.4929 13.5079 15.6433 13.5079 15.7496 13.5079C15.9195 13.5079 16.1096 13.5079 16.2602 13.5079C16.3864 13.5079 16.5369 13.5079 16.6432 13.5079C16.775 13.5079 16.9319 13.5077 17.0437 13.5077C17.3528 13.3653 17.315 12.2024 17.0772 11.9926C16.8532 11.9926 16.6094 11.9919 16.4038 11.9919C16.1798 11.9919 15.9391 11.9919 15.7336 11.9919C15.5312 11.9919 15.3109 11.9919 15.1272 11.9919C14.9628 11.9919 14.7777 11.9919 14.6326 11.9919C14.5063 11.9919 14.3558 11.9919 14.2496 11.9919C14.0797 11.9919 13.8896 11.9919 13.7389 11.9919C13.6127 11.9919 13.4622 11.9919 13.356 11.9919C13.2242 11.9919 13.0672 11.9921 12.9554 11.9921C12.6463 12.1345 12.6841 13.2974 12.9219 13.5072Z" />
</svg>
