<svg width="24" height="24" viewBox="0 0 24 24" fill="#F3EDF3" xmlns="http://www.w3.org/2000/svg">
<path d="M11.4247 21.8699C11.5752 21.7748 11.7677 21.6974 11.8776 21.5799C11.9697 21.4371 12.1092 21.3272 12.2279 21.2295C12.3193 21.1293 12.399 21.0011 12.5139 20.9432C12.6005 20.8818 12.6793 20.7848 12.7242 20.7011C12.784 20.64 12.8641 20.5792 12.9135 20.528C12.9854 20.5066 13.028 20.4241 13.0589 20.3826C13.092 20.3335 13.1491 20.2813 13.1851 20.2564C13.2546 20.1777 13.3794 20.1264 13.411 20.0293C13.4641 19.9398 13.5339 19.845 13.5705 19.7585C13.4763 19.2758 12.9946 18.905 12.5738 18.6305C12.4233 18.7256 12.2307 18.803 12.1209 18.9204C12.0287 19.0633 11.8893 19.1732 11.7705 19.2709C11.6792 19.3711 11.5995 19.4992 11.4846 19.5571C11.3979 19.6186 11.3191 19.7156 11.2743 19.7992C11.2145 19.8603 11.1343 19.9211 11.085 19.9724C11.013 19.9937 10.9704 20.0762 10.9396 20.1177C10.9064 20.1669 10.8494 20.2191 10.8134 20.244C10.7439 20.3226 10.6191 20.374 10.5874 20.471C10.5344 20.5606 10.4646 20.6553 10.428 20.7418C10.5221 21.2245 11.0039 21.5954 11.4247 21.8699Z" />
<path d="M3.92186 21.7577C5.521 21.7577 7.11051 21.7582 8.72754 21.7582C8.8626 21.7725 8.92547 21.6812 8.97303 21.6281C9.0284 21.5847 8.9984 21.4215 9.00716 21.3522C9.00716 21.2534 9.00722 21.1261 9.00722 21.0481C9.00722 20.9328 9.00722 20.7919 9.00722 20.697C9.03927 20.4733 8.97778 20.3119 8.85836 20.2586C8.73312 20.2248 8.52272 20.2523 8.39317 20.2422C8.28887 20.2422 8.15714 20.2422 8.07343 20.2422C7.81029 20.2598 7.56148 20.2598 7.49061 20.1034C7.46428 19.9122 7.54681 19.6125 7.5551 19.3888C7.57897 19.2809 7.60495 19.1545 7.63439 19.072C7.67243 19.0058 7.71052 18.9123 7.73026 18.8483C7.77374 18.7547 7.80949 18.6287 7.82628 18.5281C7.84335 17.6874 8.27387 17.2449 8.28914 16.4206C8.64805 15.6844 8.61496 14.5768 8.97459 13.8227C8.998 13.6653 9.02707 13.491 9.03912 13.3413C9.34531 12.7699 9.3515 11.9006 9.58126 11.2528C9.71283 10.3666 10.0298 9.65169 10.1561 8.77793C10.1852 8.64802 10.1852 8.47529 10.2493 8.39975C10.8507 8.13569 11.8822 8.32132 12.7026 8.2581C13.9447 7.96979 13.7531 9.11345 13.9543 9.84816C14.2519 10.3282 14.2016 11.173 14.4495 11.6845C14.6613 12.1158 14.5803 12.824 14.8489 13.2173C15.0056 13.5927 14.9741 14.1347 15.1355 14.5246C15.3043 14.8159 15.3471 15.2401 15.4062 15.6237C15.4486 16.0148 15.6604 16.2458 15.7094 16.613C15.7578 16.9819 15.7925 17.3782 15.9337 17.637C16.0548 17.885 16.0952 18.2215 16.1402 18.5279C16.1708 18.7861 16.242 19.0205 16.3325 19.2005C16.4078 19.3548 16.4402 19.5653 16.4755 19.7411C16.4973 19.9304 16.5779 20.1342 16.3997 20.1793C16.3156 20.2922 16.032 20.2197 15.8763 20.2422C15.7227 20.2422 15.5486 20.2422 15.4145 20.2422C15.2696 20.2291 15.1206 20.2443 15.0731 20.3086C14.979 20.3627 14.9849 20.5465 14.9912 20.6814C14.9912 20.8296 14.9912 20.9992 14.9912 21.1278C14.9912 21.2431 14.9912 21.384 14.9912 21.4789C14.9696 21.5938 15.0513 21.639 15.0722 21.6905C15.121 21.7073 15.1684 21.7697 15.2235 21.7582C16.429 21.7582 17.6025 21.7582 18.845 21.7582C19.0203 21.7582 19.2153 21.7582 19.3716 21.7582C19.5197 21.7582 19.6899 21.7582 19.8185 21.7582C19.9366 21.7556 20.1134 21.7754 20.1445 21.706C20.198 21.6607 20.2638 21.5948 20.2572 21.5102C20.2572 21.428 20.2572 21.3165 20.2572 21.2555C20.2572 21.1567 20.2572 21.0303 20.2572 20.9523C20.438 20.3229 20.0885 20.2109 19.6352 20.2167C19.1818 20.2223 18.6209 20.3386 18.3543 20.1476C18.264 20.1117 18.2139 20.0185 18.1821 19.944C17.9512 18.8676 17.6525 17.8751 17.3847 16.8174C17.2007 15.7737 16.887 14.8752 16.6507 13.8654C16.5512 12.9085 16.1514 12.2644 16.0604 11.2813C15.724 10.728 15.7928 9.75173 15.469 9.20378C15.4163 8.48635 15.1788 7.97134 15.023 7.33871C15.0839 6.84085 14.7414 6.72921 14.3055 6.72709C13.8695 6.72499 13.3333 6.82636 12.9896 6.74224C12.1918 6.74224 11.3928 6.74219 10.595 6.74219C10.4142 6.74219 10.2141 6.74219 10.0524 6.74219C9.94263 6.74219 9.80765 6.74224 9.71827 6.74224C9.00866 6.56477 8.91129 6.99471 8.81588 7.45065C8.77405 7.5733 8.70687 7.6928 8.704 7.83513C8.6426 8.49175 8.46658 9.0313 8.28947 9.57223C8.26225 10.3587 7.85184 10.765 7.8423 11.5692C7.72274 12.1793 7.44753 12.6493 7.4274 13.3404C7.24688 13.7502 7.11441 14.2077 7.06041 14.7441C7.03616 15.1799 6.8065 15.4198 6.77316 15.8293C6.71782 16.1324 6.69863 16.4793 6.58254 16.704C6.48374 16.8993 6.41455 17.1414 6.3902 17.393C6.34731 17.585 6.34089 17.8267 6.27901 17.9814C6.2441 18.1381 6.18122 18.2841 6.11983 18.3953C6.06989 18.5261 6.05045 18.7098 6.02329 18.8443C6.01158 19.0187 5.97998 19.1928 5.9594 19.3395C5.92496 19.5021 5.89474 19.6835 5.83262 19.7995C5.77535 19.9014 5.75345 20.055 5.67505 20.1163C5.6046 20.1776 5.50535 20.2275 5.4082 20.2422C5.29841 20.2422 5.16306 20.2422 5.0737 20.2422C4.92012 20.2422 4.74505 20.2422 4.61093 20.2422C4.49016 20.2422 4.34406 20.2422 4.24343 20.2422C4.13087 20.2559 3.93164 20.2162 3.88645 20.2773C3.69732 20.5111 3.65825 21.5529 3.92186 21.7577Z" />
<path d="M11.4247 18.1199C11.5752 18.0248 11.7677 17.9474 11.8776 17.8299C11.9697 17.6871 12.1092 17.5772 12.2279 17.4795C12.3193 17.3793 12.399 17.2511 12.5139 17.1932C12.6005 17.1318 12.6793 17.0348 12.7242 16.9511C12.784 16.89 12.8641 16.8292 12.9135 16.778C12.9854 16.7566 13.028 16.6741 13.0589 16.6326C13.092 16.5835 13.1491 16.5313 13.1851 16.5064C13.2546 16.4277 13.3794 16.3764 13.411 16.2793C13.4641 16.1898 13.5339 16.095 13.5705 16.0085C13.4763 15.5259 12.9946 15.155 12.5738 14.8805C12.4233 14.9757 12.2307 15.0531 12.1209 15.1705C12.0287 15.3132 11.8893 15.4232 11.7705 15.5208C11.6792 15.6211 11.5995 15.7493 11.4846 15.8071C11.3979 15.8685 11.3191 15.9656 11.2743 16.0492C11.2145 16.1103 11.1343 16.1711 11.085 16.2224C11.013 16.2437 10.9704 16.3262 10.9396 16.3677C10.9064 16.4169 10.8494 16.4691 10.8134 16.494C10.7439 16.5726 10.6191 16.624 10.5874 16.721C10.5344 16.8106 10.4646 16.9053 10.428 16.9918C10.5221 17.4745 11.0039 17.8454 11.4247 18.1199Z" />
<path d="M11.4247 14.3699C11.5752 14.2747 11.7677 14.1973 11.8776 14.0799C11.9697 13.9371 12.1092 13.8272 12.2279 13.7296C12.3193 13.6293 12.399 13.5011 12.5139 13.4433C12.6005 13.3818 12.6793 13.2848 12.7242 13.2011C12.784 13.1401 12.8641 13.0792 12.9135 13.0279C12.9854 13.0066 13.028 12.9241 13.0589 12.8826C13.092 12.8335 13.1491 12.7813 13.1851 12.7564C13.2546 12.6778 13.3794 12.6263 13.411 12.5294C13.4641 12.4397 13.5339 12.3449 13.5705 12.2585C13.4763 11.7759 12.9946 11.405 12.5738 11.1305C12.4233 11.2257 12.2307 11.3031 12.1209 11.4205C12.0287 11.5632 11.8893 11.6732 11.7705 11.7708C11.6792 11.8711 11.5995 11.9993 11.4846 12.0571C11.3979 12.1185 11.3191 12.2156 11.2743 12.2993C11.2145 12.3603 11.1343 12.4211 11.085 12.4724C11.013 12.4937 10.9704 12.5763 10.9396 12.6178C10.9064 12.6669 10.8494 12.719 10.8134 12.7439C10.7439 12.8226 10.6191 12.8741 10.5874 12.971C10.5344 13.0606 10.4646 13.1554 10.428 13.2418C10.5221 13.7245 11.0039 14.0953 11.4247 14.3699Z" />
<path d="M9.17154 4.50751C9.4441 4.50751 9.73416 4.50818 9.98859 4.50818C10.2342 4.50818 10.4953 4.50818 10.7226 4.50818C10.9413 4.50818 11.1768 4.50818 11.3769 4.50818C11.5956 4.50818 11.8311 4.50818 12.0311 4.50818C12.2336 4.50818 12.4539 4.50818 12.6375 4.50818C12.7966 4.50818 12.9766 4.50818 13.1162 4.50818C13.2425 4.50818 13.393 4.50818 13.4992 4.50818C13.6691 4.50818 13.8592 4.50818 14.0099 4.50818C14.1361 4.50818 14.2866 4.50818 14.3928 4.50818C14.5246 4.50818 14.6816 4.50802 14.7934 4.50802C15.1025 4.36557 15.0647 3.20267 14.8269 2.99286C14.5543 2.99286 14.2643 2.99219 14.0099 2.99219C13.7642 2.99219 13.5031 2.99219 13.2758 2.99219C13.0572 2.99219 12.8216 2.99219 12.6216 2.99219C12.4029 2.99219 12.1674 2.99219 11.9673 2.99219C11.7649 2.99219 11.5446 2.99219 11.3609 2.99219C11.2019 2.99219 11.0219 2.99219 10.8822 2.99219C10.756 2.99219 10.6055 2.99219 10.4992 2.99219C10.3293 2.99219 10.1393 2.99219 9.98859 2.99219C9.86233 2.99219 9.71185 2.99219 9.60561 2.99219C9.47388 2.99219 9.31688 2.99235 9.20503 2.99235C8.89598 3.1348 8.93379 4.2977 9.17154 4.50751Z" />
</svg>
