<svg width="25" height="24" viewBox="0 0 25 24" fill="#F3EDF3" xmlns="http://www.w3.org/2000/svg">
<path d="M11.5557 22.5081C11.7659 22.5081 11.9944 22.5081 12.1857 22.5081C12.3466 22.5081 12.5291 22.5081 12.6704 22.5081C12.8047 22.493 12.8975 22.4065 12.9664 22.346C12.9915 22.2005 12.948 21.9956 12.9684 21.8309C12.9558 21.6485 12.9761 21.4792 13.0006 21.3528C13.0401 21.2491 13.0675 21.112 13.0972 21.0185C13.2339 19.8729 13.7044 19.0735 14.1136 18.179C14.8292 17.0486 15.6895 16.0792 16.8372 15.3584C16.9626 15.3179 17.0698 15.2336 17.1307 15.1486C17.2054 15.0743 17.3398 15.0423 17.4344 15.0073C18.2289 14.455 19.3381 14.2454 20.4504 13.9708C20.6089 13.9467 20.7909 13.929 20.9647 13.939C21.1216 13.9514 21.2373 13.9002 21.3524 13.8911C21.4759 13.9033 21.524 13.8093 21.5829 13.7782C21.6364 13.7323 21.6424 13.6008 21.635 13.5154C21.635 13.4111 21.635 13.2807 21.635 13.197C21.635 13.0817 21.635 12.9409 21.635 12.8459C21.635 12.7526 21.635 12.631 21.635 12.5587C21.5914 12.47 21.5233 12.3682 21.4513 12.3275C20.6872 12.3896 19.7156 12.3157 19.1709 12.631C19.0282 12.6545 18.8993 12.7098 18.7531 12.7103C17.5927 13.0598 16.555 13.5091 15.6831 14.1798C14.8395 14.6794 14.2373 15.4047 13.5844 16.1111C13.5294 16.139 13.5016 16.2172 13.4437 16.2209C13.3618 16.2332 13.2772 16.2796 13.2445 16.3197C13.1846 16.4031 13.1341 16.5215 13.0981 16.609C13.0809 16.7116 13.0826 16.6806 13.07 16.6208C13.0573 16.561 13.043 16.4694 13.0302 16.4622C13.0119 16.3404 13.0201 16.2696 13.0487 16.1837C13.3136 15.7961 13.196 15.0172 13.4991 14.6862C13.5716 14.5826 13.633 14.4419 13.6463 14.2988C13.6953 14.2155 13.7035 14.0746 13.7574 14.016C14.0501 13.5598 14.2643 13.0105 14.6127 12.6277C15.0208 12.0294 15.4765 11.4682 16.0478 11.0491C16.6107 10.613 17.2122 10.2294 17.8537 9.85322C18.5394 9.68162 19.0232 9.32524 19.8218 9.24713C20.2356 8.98134 21.0511 9.12601 21.5509 8.92685C21.6339 8.57331 21.7344 7.65599 21.4526 7.44491C20.9662 7.41033 20.559 7.53437 20.0613 7.50812C19.6741 7.54803 19.3334 7.64688 19.042 7.76391C18.6927 7.8734 18.2094 7.86306 17.9745 8.06833C17.6769 8.24494 17.2143 8.26855 17.0217 8.53169C16.7493 8.63147 16.4309 8.69813 16.295 8.9152C16.0949 9.00071 15.8723 9.07506 15.7638 9.23305C15.5503 9.2311 15.5117 8.97023 15.5023 8.7445C15.5821 8.49499 15.5751 8.13871 15.5507 7.85055C15.5518 7.54993 15.4722 7.31743 15.5022 7.00624C15.1232 4.48021 14.0576 2.6309 12.5464 1.20721C12.4584 1.11351 12.386 0.977445 12.2022 0.99748C11.9415 0.947534 11.8344 1.07578 11.744 1.1756C10.7089 2.20844 9.82196 3.36194 9.28934 4.94409C9.17585 5.05053 9.14602 5.2582 9.11144 5.42407C9.0809 5.58009 9.06677 5.77064 9.03086 5.90235C9.00626 6.04795 8.94121 6.17441 8.91774 6.30191C8.89406 6.43207 8.85352 6.56744 8.837 6.68522C8.81295 6.7877 8.77617 6.90269 8.77236 7.00519C8.77315 7.19214 8.78082 7.40241 8.74044 7.52971C8.71765 7.67709 8.72319 7.87533 8.72395 8.0268C8.68949 8.11898 8.71759 8.29635 8.70784 8.39296C8.73197 8.4789 8.73042 8.62069 8.75679 8.68397C8.80196 8.92724 8.71797 9.16586 8.56976 9.24753C8.41737 9.20115 8.3631 9.04386 8.21848 9.00864C7.21952 8.431 6.15506 7.90392 4.8609 7.63606C4.73904 7.5921 4.5709 7.57198 4.45632 7.54009C4.32079 7.54236 4.2071 7.49982 4.08548 7.50823C4.01366 7.47496 3.85236 7.50196 3.77762 7.49216C3.66226 7.50192 3.54822 7.48445 3.47184 7.47627C3.37084 7.46085 3.26173 7.42696 3.16425 7.42833C2.97957 7.42105 2.76068 7.41239 2.72084 7.52923C2.64322 7.6115 2.6256 7.77816 2.63966 7.93172C2.63966 8.047 2.63962 8.18706 2.63962 8.28207C2.63962 8.35876 2.63962 8.46628 2.63962 8.52143C2.56316 8.83244 2.69151 8.95707 2.88268 9.00357C3.07386 9.05007 3.33463 9.02634 3.53405 9.05593C5.02529 9.31332 6.36241 9.707 7.37161 10.4588C8.27839 11.0627 9.10445 11.7029 9.7098 12.6589C9.76424 12.7149 9.81636 12.7962 9.83789 12.8643C9.86683 12.9344 9.90827 13.0221 9.93542 13.0733C10.0019 13.1447 10.0968 13.2118 10.1455 13.2811C10.3928 13.8623 10.6771 14.4196 10.9357 14.9715C10.9838 15.1318 10.9895 15.35 11.0321 15.497C11.0379 15.6502 11.0801 15.7888 11.1128 15.8961C11.1423 15.9713 11.1438 16.1041 11.1784 16.1536C11.2612 16.3042 11.195 16.5188 11.1967 16.6982C11.1541 16.441 11.1017 16.1732 10.7844 16.2054C10.4466 15.7138 9.97031 15.3497 9.561 14.9468C9.26414 14.5542 8.81447 14.3102 8.39773 14.0361C8.00377 13.7396 7.5502 13.4993 7.08891 13.2693C6.53501 13.1149 6.11466 12.8264 5.52193 12.7104C5.00778 12.6175 4.61049 12.3888 4.03524 12.3751C3.60021 12.4292 2.97024 12.2479 2.72326 12.4089C2.56702 12.6343 2.67849 13.1434 2.63967 13.4673C2.5961 13.7672 2.76234 13.8772 2.98612 13.9127C3.2099 13.9481 3.498 13.9179 3.71161 13.9549C4.25994 14.03 4.66291 14.2661 5.24418 14.2899C5.6402 14.478 6.05704 14.6246 6.48524 14.7999C6.82362 14.9949 7.20065 15.157 7.48404 15.3892C7.72512 15.6216 8.05816 15.7723 8.27487 16.0115C8.55229 16.1331 8.71329 16.38 8.92015 16.5538C9.0783 16.756 9.23196 16.973 9.40382 17.1437C9.51957 17.3449 9.6893 17.504 9.82287 17.6697C9.87253 17.8824 10.0157 18.0183 10.1299 18.1489C10.2288 18.2753 10.2452 18.4977 10.3228 18.6266C10.4033 18.7602 10.5493 18.8419 10.5638 19.0221C10.624 19.1433 10.6368 19.3363 10.7105 19.425C10.7397 19.5552 10.8603 19.612 10.8868 19.7255C10.934 19.8214 10.9546 19.9667 10.9837 20.0609C11.0046 20.2374 11.0232 20.434 11.0644 20.5715C11.0913 20.6877 11.1402 20.8036 11.161 20.906C11.1699 21.0016 11.2123 21.0887 11.2093 21.1754C11.4927 21.4822 11.0581 22.4277 11.5557 22.5081ZM12.3252 12.7446C11.7858 12.912 11.796 12.4823 11.6269 12.2661C11.402 12.1138 11.3991 11.7304 11.223 11.5476C11.0391 11.4086 11.0072 11.1121 10.9346 10.8808C10.8899 10.6417 10.6977 10.5366 10.6768 10.292C10.6328 10.0683 10.598 9.82107 10.5799 9.58996C10.5557 9.36291 10.4011 9.25107 10.4346 8.98519C10.4607 8.74611 10.3528 8.62077 10.3378 8.44099C10.4043 6.40359 10.9775 4.71121 11.9329 3.43696C12.5106 3.27775 12.4672 3.73137 12.648 3.94723C12.8883 4.10016 12.8896 4.50022 13.0676 4.69726C13.2617 4.84234 13.2653 5.18428 13.3727 5.39731C13.4666 5.60929 13.5868 5.80544 13.6302 6.0494C13.6587 6.29928 13.7024 6.54816 13.7432 6.76759C13.8189 6.94919 13.8054 7.23469 13.8564 7.42244C13.9045 7.59352 13.9249 7.80788 13.953 7.98015C13.9686 8.13457 13.9427 8.38819 13.9207 8.53622C13.8844 8.68107 13.8127 8.81251 13.84 9.00129C13.8717 9.18625 13.7833 9.27087 13.7594 9.38142C13.715 9.48566 13.6955 9.63713 13.6786 9.74897C13.4658 10.9823 12.9196 11.8524 12.3252 12.7446Z" />
</svg>
