<svg width="24" height="24" viewBox="0 0 24 24" fill="#F3EDF3" xmlns="http://www.w3.org/2000/svg">
<path d="M2.42171 21.0075C3.31525 21.0075 4.21185 21.008 5.10537 21.008C5.93907 21.008 6.75885 21.008 7.61069 21.008C8.4126 21.008 9.20013 21.008 10.0203 21.008C10.8021 21.008 11.5842 21.008 12.366 21.008C13.0154 21.008 13.6821 21.008 14.3128 21.008C14.8157 21.008 15.3272 21.008 15.8128 21.008C16.2087 21.008 16.6153 21.008 16.9937 21.008C17.3039 21.008 17.6269 21.008 17.9192 21.008C18.1648 21.008 18.426 21.008 18.6532 21.008C18.8773 21.008 19.1179 21.008 19.3235 21.008C19.5799 21.008 19.8513 21.008 20.0894 21.008C20.335 21.008 20.5962 21.008 20.8235 21.008C21.0151 21.008 21.2246 21.008 21.3973 21.008C21.6186 21.0431 21.7115 20.9175 21.7565 20.7952C21.7565 20.5173 21.757 20.2225 21.757 19.9627C21.757 19.7279 21.757 19.477 21.757 19.2606C21.757 19.0635 21.757 18.8484 21.757 18.6702C21.757 18.5057 21.757 18.3207 21.757 18.1755C21.757 18.0329 21.757 17.8677 21.757 17.7447C21.757 17.5422 21.757 17.3219 21.757 17.1383C21.757 16.9848 21.757 16.8096 21.757 16.6755C21.6692 16.1459 21.9186 15.2487 21.5763 14.9925C20.6827 14.9925 19.7861 14.992 18.8926 14.992C18.059 14.992 17.2391 14.992 16.3873 14.992C15.5854 14.992 14.7978 14.992 13.9777 14.992C13.1959 14.992 12.4138 14.992 11.632 14.992C10.9826 14.992 10.3159 14.992 9.68516 14.992C9.18229 14.992 8.67081 14.992 8.18516 14.992C7.78921 14.992 7.38272 14.992 7.00431 14.992C6.69411 14.992 6.37105 14.992 6.07878 14.992C5.83313 14.992 5.57203 14.992 5.34473 14.992C5.12066 14.992 4.88005 14.992 4.67452 14.992C4.4181 14.992 4.14673 14.992 3.90856 14.992C3.66291 14.992 3.40182 14.992 3.17452 14.992C2.9829 14.992 2.7734 14.992 2.60068 14.992C2.37935 14.9569 2.28649 15.0825 2.24146 15.2047C2.24146 15.4827 2.24099 15.7774 2.24099 16.0372C2.24099 16.2721 2.24099 16.523 2.24099 16.7393C2.24099 16.9364 2.24099 17.1515 2.24099 17.3298C2.24099 17.4943 2.24099 17.6792 2.24099 17.8245C2.24099 17.9671 2.24099 18.1323 2.24099 18.2553C2.24099 18.4578 2.24099 18.678 2.24099 18.8617C2.24099 19.0152 2.24099 19.1904 2.24099 19.3245C2.32874 19.8541 2.07941 20.7512 2.42171 21.0075ZM20.0703 19.4767C19.327 19.4992 18.5532 19.4877 17.7915 19.492C17.1421 19.492 16.4755 19.492 15.8447 19.492C15.2917 19.492 14.7192 19.492 14.1852 19.492C13.7037 19.492 13.2132 19.492 12.749 19.492C12.3156 19.492 11.8724 19.492 11.4564 19.492C11.0391 19.492 10.6116 19.492 10.2118 19.492C9.8051 19.492 9.38814 19.492 8.99899 19.492C8.63518 19.492 8.26005 19.492 7.91388 19.492C7.63056 19.492 7.3334 19.492 7.06814 19.492C6.84406 19.492 6.60346 19.492 6.39793 19.492C6.22259 19.492 6.02755 19.492 5.87133 19.492C5.72867 19.492 5.56348 19.492 5.44048 19.492C5.31422 19.492 5.16374 19.492 5.0575 19.492C4.92577 19.492 4.77041 19.492 4.65856 19.492C4.52136 19.492 4.3615 19.492 4.24405 19.492C4.14406 19.4823 3.98422 19.5099 3.92794 19.4768C3.84911 19.4513 3.78955 19.3894 3.7727 19.3225C3.74912 19.1382 3.76187 18.9021 3.75698 18.7179C3.75698 18.5588 3.75698 18.379 3.75698 18.2393C3.84322 17.6922 3.59044 16.8006 3.92768 16.5233C4.67101 16.5008 5.44484 16.5123 6.20645 16.508C6.85586 16.508 7.52251 16.508 8.15324 16.508C8.70631 16.508 9.27879 16.508 9.81282 16.508C10.2943 16.508 10.7848 16.508 11.249 16.508C11.6824 16.508 12.1255 16.508 12.5415 16.508C12.9589 16.508 13.3863 16.508 13.7862 16.508C14.1929 16.508 14.6098 16.508 14.999 16.508C15.3628 16.508 15.7379 16.508 16.0841 16.508C16.3675 16.508 16.6646 16.508 16.9298 16.508C17.1539 16.508 17.3945 16.508 17.6001 16.508C17.7754 16.508 17.9704 16.508 18.1266 16.508C18.2693 16.508 18.4345 16.508 18.5575 16.508C18.6837 16.508 18.8342 16.508 18.9405 16.508C19.0723 16.508 19.2276 16.508 19.3394 16.508C19.4767 16.508 19.6365 16.508 19.754 16.508C19.8539 16.5177 20.0138 16.4901 20.0701 16.5231C20.1489 16.5487 20.2085 16.6106 20.2252 16.6774C20.2488 16.8617 20.2361 17.0979 20.241 17.2821C20.241 17.4412 20.241 17.621 20.241 17.7606C20.1547 18.3078 20.4076 19.1993 20.0703 19.4767Z" />
<path d="M4.67133 13.5073C4.81945 13.5073 4.99276 13.508 5.12133 13.508C5.25306 13.508 5.40884 13.508 5.52068 13.508C5.61515 13.4982 5.77648 13.5245 5.82692 13.4912C5.89228 13.4744 5.94933 13.4128 5.97389 13.3765C6.01999 12.2525 5.99789 11.0547 6.00698 9.89366C6.01669 9.7826 5.98957 9.61385 6.02222 9.54587C6.03496 9.45983 6.08714 9.38984 6.13217 9.35682C6.17063 9.23931 6.24601 9.34227 6.31618 9.34284C7.04187 9.76064 7.71821 10.225 8.48414 10.6025C8.5507 10.6622 8.62755 10.7331 8.6741 10.7928C8.75559 10.8375 8.86621 10.8775 8.91351 10.9364C9.0433 11.0091 8.97454 11.291 8.99103 11.4582C8.99103 11.6009 8.991 11.7653 8.991 11.8883C9.06287 12.1491 8.98504 12.5637 8.97603 12.9074C8.96703 13.251 9.0351 13.5317 9.38224 13.508C9.46445 13.508 9.57639 13.508 9.63729 13.508C9.73054 13.508 9.85244 13.508 9.92478 13.508C10.0639 13.499 10.2638 13.5252 10.3586 13.4913C10.4219 13.4558 10.472 13.3733 10.5056 13.3289C10.5056 12.5993 10.507 11.8495 10.507 11.1383C10.507 11.023 10.507 10.8822 10.507 10.7872C10.507 10.5902 10.507 10.375 10.507 10.1968C10.507 10.0432 10.507 9.86815 10.507 9.73402C10.507 9.62974 10.507 9.49859 10.507 9.41488C10.4721 9.13438 10.5696 8.98578 10.6754 8.86431C10.818 8.97281 11.0034 9.04591 11.1322 9.14981C11.6347 9.56909 12.1647 9.9746 12.6963 10.3468C13.0879 10.6892 13.685 10.8152 13.4912 11.743C13.6202 12.2954 13.2435 13.3868 13.7853 13.5079C13.9171 13.5079 14.0733 13.508 14.1852 13.508C14.2674 13.508 14.3785 13.5079 14.4394 13.5079C14.8327 13.6193 14.9694 13.4631 15.0048 13.2189C15.0402 12.9748 14.9832 12.6354 15.007 12.3677C15.007 11.6542 15.007 10.9238 15.007 10.2287C15.007 10.1244 15.007 9.99327 15.007 9.90956C14.9838 9.63533 15.0045 9.40347 15.1606 9.32687C15.2911 9.32221 15.5014 9.42825 15.6329 9.48539C15.8375 9.76228 16.2726 9.81742 16.4944 10.0597C16.8094 10.1246 16.9394 10.3893 17.1992 10.4918C17.5081 10.5145 17.5913 10.7746 17.8211 10.8587C18.0906 10.9314 17.9639 11.3999 17.991 11.6975C17.991 12.0345 17.991 12.3829 17.991 12.7021C18.0188 12.9845 17.9096 13.4311 18.141 13.4919C18.3832 13.5223 18.6944 13.4991 18.94 13.508C19.2086 13.5308 19.4648 13.5116 19.5068 13.3262C19.5068 13.1021 19.507 12.8598 19.507 12.6542C19.507 12.4789 19.507 12.2839 19.507 12.1276C19.507 11.9904 19.507 11.8302 19.507 11.7127C19.507 11.581 19.507 11.4257 19.507 11.3138C19.507 11.1602 19.507 10.9852 19.507 10.851C19.507 10.7084 19.507 10.5432 19.507 10.4202C19.5146 10.3028 19.4899 10.1899 19.4749 10.1154C19.4672 10.0188 19.4452 9.90038 19.3913 9.87068C18.6678 9.43677 17.9738 9.02175 17.2046 8.57787C17.0869 8.53659 16.9943 8.45401 16.9361 8.37265C16.8615 8.30997 16.7444 8.26066 16.6613 8.22648C16.5451 8.19448 16.4591 8.1156 16.393 8.05299C16.3436 7.97625 16.226 7.9409 16.1684 7.89226C16.0359 7.83849 15.8763 7.79647 15.8031 7.7024C15.745 7.63974 15.6555 7.57722 15.5919 7.54024C14.9299 7.50469 14.9748 6.7594 15.007 6.04822C15.007 5.88919 15.007 5.70879 15.007 5.56913C15.007 5.44288 15.007 5.2924 15.007 5.18615C15.007 5.08187 15.007 4.95072 15.007 4.867C15.007 4.71343 15.007 4.53836 15.007 4.40424C15.007 4.25612 15.007 4.086 15.007 3.95743C14.9821 3.87806 14.92 3.79343 14.8558 3.7739C14.6427 3.81321 14.2675 3.73037 13.9639 3.73101C13.6602 3.73165 13.4198 3.82521 13.4911 4.19827C13.4911 5.45248 13.491 6.69019 13.491 7.96275C13.491 8.056 13.491 8.17765 13.491 8.24998C13.5091 8.43255 13.4654 8.57231 13.4433 8.69535C13.4181 8.77998 13.3902 8.87247 13.3247 8.89634C12.9139 8.55293 12.481 8.25183 12.0517 7.90851C11.9605 7.84619 11.8268 7.80716 11.7657 7.73416C11.4201 7.35024 10.8712 7.15498 10.5695 6.74556C10.452 6.08122 10.5388 5.21772 10.507 4.46773C10.507 4.3196 10.507 4.14983 10.507 4.02126C10.5164 3.89655 10.4427 3.81984 10.3761 3.79142C10.3603 3.72501 10.2208 3.74561 10.1635 3.74199C9.93252 3.77952 9.59869 3.71928 9.34397 3.73562C9.08925 3.75196 8.90626 3.85477 8.99122 4.19869C8.99122 5.08844 8.991 5.98993 8.991 6.86168C8.94501 7.52923 9.08015 8.39047 8.87987 8.88528C8.85907 8.93826 8.80153 8.95773 8.76488 8.93012C8.53188 8.63353 8.03302 8.59493 7.82356 8.29198C7.45064 8.20477 7.30916 7.8734 6.94385 7.79591C6.75485 7.61038 6.48189 7.49834 6.2421 7.38121C5.9947 7.23266 5.98705 6.84555 6.00698 6.44719C6.00698 6.05124 6.00698 5.64435 6.00698 5.26594C6.00698 4.91283 6.00698 4.54816 6.00698 4.21275C6.08021 3.8186 5.86511 3.68363 5.50367 3.742C5.24186 3.742 4.96582 3.74199 4.72223 3.74199C4.57322 3.74808 4.5119 3.85983 4.49444 3.99846C4.477 4.13708 4.49559 4.3103 4.49099 4.45185C4.49099 4.89595 4.49099 5.34986 4.49099 5.77658C4.49099 6.15111 4.49099 6.53668 4.49099 6.8936C4.49099 7.20916 4.49099 7.53742 4.49099 7.83509C4.49099 8.10228 4.49099 8.38394 4.49099 8.63296C4.49099 8.85703 4.49099 9.09764 4.49099 9.30317C4.49099 9.5002 4.49099 9.7154 4.49099 9.8936C4.49099 10.0581 4.49099 10.2431 4.49099 10.3883C4.49099 10.5255 4.49099 10.6857 4.49099 10.8032C4.49099 11.0002 4.49099 11.2154 4.49099 11.3936C4.49099 11.5417 4.49099 11.7118 4.49099 11.8404C4.57814 12.3647 4.33444 13.214 4.67133 13.5073Z" />
</svg>
