<svg width="25" height="24" viewBox="0 0 25 24" fill="#F3EDF3" xmlns="http://www.w3.org/2000/svg">
<path d="M3.20679 21.0072C3.37862 21.0072 3.57404 21.0078 3.72646 21.0078C3.89829 21.0078 4.09049 21.0078 4.2429 21.0078C4.40374 21.0078 4.58582 21.0078 4.72706 21.0078C4.86582 21.0078 5.02791 21.0078 5.14667 21.0078C5.33498 21.0078 5.54241 21.0078 5.71153 21.0078C5.83922 21.0078 5.9906 21.0078 6.09807 21.0078C6.96164 21.1802 7.11533 20.6258 7.42771 20.2717C7.54872 20.2106 7.58195 20.0416 7.65453 19.9516C7.72891 19.8552 7.85576 19.789 7.91341 19.6953C7.95211 19.591 8.011 19.4865 8.07371 19.4255C8.15355 19.3074 8.28002 19.2138 8.33339 19.0883C8.3942 19.0113 8.42276 18.885 8.49214 18.8362C8.53643 18.8032 8.61361 18.7685 8.63914 18.7387C8.76016 18.2311 9.6532 18.5135 10.2309 18.4387C11.8949 18.4387 13.572 18.4387 15.218 18.4387C15.3953 18.406 15.4417 18.5163 15.5018 18.5798C16.118 19.2736 16.6373 20.063 17.2446 20.7656C17.2859 20.818 17.349 20.8804 17.3915 20.9107C17.4435 20.9415 17.5269 20.9755 17.5719 20.9917C18.6125 21.0128 19.6963 21.0047 20.7367 21.0078C20.8255 21.0078 20.9444 21.0078 21.0117 21.0078C21.1205 20.9892 21.2028 20.9075 21.2286 20.8267C21.2506 19.9586 21.2414 19.0435 21.2451 18.1754C21.2451 17.1862 21.2451 16.1965 21.2451 15.2073C21.2451 14.2623 21.2451 13.3298 21.2451 12.3669C21.2451 11.5091 21.2451 10.6374 21.2451 9.79774C21.2451 9.12289 21.2451 8.46461 21.2451 7.77115C21.2309 7.23207 21.2679 6.622 21.2128 6.14245C20.987 5.9002 20.1622 6.00806 19.797 6.05661C19.6414 6.38966 19.7553 7.00854 19.7119 7.43524C19.7119 7.86865 19.7119 8.3126 19.7119 8.72859C19.6806 8.91697 19.7245 9.18191 19.7179 9.39507C19.7114 9.60822 19.6629 9.7616 19.4298 9.74188C19.0402 9.74188 18.6389 9.74189 18.267 9.74189C18.0012 9.77856 17.5487 9.65654 17.4851 9.87518C17.3949 10.0101 17.4599 10.3166 17.4364 10.4989C17.4364 10.6851 17.4364 10.8912 17.4364 11.0584C17.4709 11.2913 17.7995 11.2643 18.0579 11.2579C18.3117 11.2579 18.5809 11.2579 18.8162 11.2579C19.01 11.2579 19.2232 11.2578 19.3979 11.2578C19.5827 11.2287 19.6438 11.3319 19.6969 11.4135C19.7171 13.6779 19.7092 15.9749 19.7119 18.2392C19.7119 18.3983 19.7119 18.5783 19.7119 18.718C19.7119 18.8498 19.7119 19.005 19.7119 19.1169C19.7166 19.2259 19.7253 19.3555 19.6671 19.3815C19.6306 19.4333 19.5657 19.4809 19.5094 19.4919C19.4263 19.4919 19.3136 19.4919 19.252 19.4919C19.0967 19.4919 18.9192 19.4919 18.7835 19.4919C18.6406 19.5069 18.5256 19.4734 18.4152 19.4763C18.0154 19.1217 17.7041 18.687 17.4028 18.2349C17.3516 18.1266 17.2325 18.0632 17.1764 17.979C17.0976 17.9252 17.0665 17.8007 17.0151 17.7398C16.985 17.6763 16.917 17.6172 16.8673 17.5939C16.8087 17.5531 16.7584 17.4854 16.7422 17.4233C16.4976 16.4997 14.7883 16.9946 13.7653 16.8589C12.0943 16.8589 10.4347 16.8589 8.74562 16.8589C8.62903 16.8589 8.48671 16.8589 8.39062 16.8589C8.28968 16.8578 8.15305 16.8538 8.09632 16.8758C7.42442 17.386 7.01527 18.1449 6.46374 18.7928C6.4162 18.8665 6.39167 18.9843 6.32036 19.0144C6.27434 19.0788 6.18483 19.1292 6.14121 19.1755C6.06352 19.2848 6.00814 19.4281 5.88752 19.4761C5.74103 19.4739 5.60929 19.5067 5.46988 19.4919C5.36998 19.4919 5.2406 19.4919 5.16168 19.4919C4.75784 19.6093 4.61801 19.4857 4.56787 19.2557C4.51774 19.0256 4.56653 18.6972 4.55762 18.4144C4.55762 17.2757 4.55762 16.1202 4.55762 14.9999C4.55762 14.0549 4.55762 13.1224 4.55762 12.1594C4.55762 12.0662 4.55762 11.9445 4.55762 11.8722C4.55762 11.7955 4.55762 11.688 4.55762 11.6328C4.51416 11.3079 4.71741 11.2477 4.99937 11.247C5.28133 11.2463 5.63484 11.3129 5.87385 11.2578C5.97375 11.2578 6.10094 11.2579 6.17986 11.2579C6.38539 11.2424 6.69683 11.3043 6.76754 11.1741C6.89319 11.0366 6.80243 10.6664 6.83311 10.4531C6.807 10.2441 6.89252 9.89797 6.74924 9.82323C6.65954 9.68245 6.31806 9.76904 6.13211 9.74192C5.64229 9.69667 4.97752 9.82155 4.61895 9.66368C4.49662 9.19947 4.59163 8.51074 4.55761 7.97808C4.55761 7.48591 4.55762 6.98545 4.55762 6.51051C4.63328 6.22704 4.55246 6.08341 4.40285 6.02232C4.25323 5.96124 4.02624 5.97474 3.80667 5.99189C3.63749 5.99847 3.43431 5.97502 3.27849 5.99553C3.12266 6.01605 3.0066 6.08926 3.02444 6.27191C3.02444 7.00588 3.02441 7.73931 3.02441 8.47327C3.02441 9.09057 3.02441 9.72581 3.02441 10.3243C3.02441 10.8486 3.02441 11.3811 3.02441 11.8882C3.02441 12.3376 3.02441 12.7965 3.02441 13.2286C3.02441 13.6085 3.02441 13.9993 3.02441 14.3616C3.02441 14.6825 3.02441 15.0159 3.02441 15.319C3.02441 15.5916 3.02441 15.8784 3.02441 16.1328C3.02441 16.3569 3.02441 16.5975 3.02441 16.8031C3.02441 17.0001 3.02441 17.2152 3.02441 17.3935C3.02441 17.558 3.02441 17.743 3.02441 17.8882C3.02441 18.0254 3.02441 18.1856 3.02441 18.3031C3.02441 18.5001 3.02441 18.7152 3.02441 18.8935C3.02441 19.0416 3.02441 19.2117 3.02441 19.3403C3.11254 19.8645 2.86607 20.7139 3.20679 21.0072Z" />
<path d="M8.49849 15.437C8.65381 15.437 8.83592 15.4387 8.97156 15.4387C9.07146 15.4387 9.19835 15.4387 9.27726 15.4387C9.79871 15.5612 9.9329 15.288 9.94583 14.9091C9.95876 14.5303 9.85924 14.0395 9.93166 13.709C9.93166 12.7836 9.93184 11.8562 9.93184 10.9307C9.87329 10.0471 10.276 9.6053 10.2869 8.80849C10.5972 8.31345 10.6634 7.59678 10.9957 7.10523C11.2302 6.57539 11.4896 6.05472 11.7866 5.6051C11.8083 5.53324 11.8368 5.44307 11.8819 5.4154C11.8871 5.36034 11.9391 5.32556 11.9896 5.33765C12.6574 5.16951 12.4013 5.91774 12.7596 6.03839C12.8782 6.49556 13.223 6.72059 13.3049 7.21402C13.5064 7.54434 13.6708 7.92003 13.7569 8.34731C13.9535 8.63443 14.0221 9.05625 14.0795 9.46374C14.1304 9.82544 14.3079 10.0713 14.3216 10.4523C14.3561 10.7659 14.3271 11.154 14.3377 11.4735C14.3377 11.7622 14.3377 12.0643 14.3377 12.335C14.3377 12.586 14.3377 12.8522 14.3377 13.085C14.3377 13.3091 14.3377 13.5497 14.3377 13.7552C14.3377 13.9576 14.3377 14.1779 14.3377 14.3616C14.3377 14.5315 14.3377 14.7215 14.3377 14.8722C14.3524 14.9894 14.3083 15.1969 14.3726 15.2451C14.413 15.3095 14.4712 15.3854 14.5354 15.4057C14.5775 15.4628 14.7461 15.4269 14.8131 15.4387C14.9241 15.4387 15.0623 15.4387 15.1527 15.4387C15.2638 15.4387 15.4013 15.4387 15.4916 15.4387C15.5748 15.4387 15.6906 15.4384 15.7521 15.4384C15.8258 15.3849 15.8977 15.2943 15.9191 15.2092C15.9412 14.3497 15.9316 13.47 15.9355 12.5744C15.9177 11.6862 15.9677 10.7168 15.9032 9.89287C15.8384 9.25484 15.5509 8.83655 15.4835 8.20107C15.2201 7.84423 15.2223 7.20156 14.9495 6.87284C14.8376 6.32444 14.4858 6.0338 14.3374 5.50288C14.051 5.12706 13.8481 4.68207 13.5777 4.27181C13.3081 4.01946 13.1499 3.64801 12.9157 3.37785C12.7594 3.1097 12.4915 2.94469 12.3681 2.66148C12.3264 2.59843 12.1413 2.63982 12.0716 2.62497C12.0332 2.61983 11.9889 2.62035 11.9578 2.62784C11.9268 2.63532 11.8994 2.65811 11.9008 2.68118C11.7449 3.0086 11.4185 3.17218 11.2881 3.50743C11.0168 3.85651 10.7416 4.21752 10.5142 4.59115C10.2509 4.82834 10.2098 5.29177 9.93418 5.49952C9.8668 5.84491 9.66637 6.07244 9.52921 6.33135C9.43726 6.58819 9.37243 6.8807 9.20759 7.04775C9.0973 7.22738 9.08053 7.51661 8.99643 7.70411C8.92147 7.90795 8.78694 8.06955 8.75376 8.29659C8.711 8.51076 8.67372 8.74425 8.62481 8.93405C8.56448 9.12003 8.46619 9.28465 8.43103 9.47717C8.39389 9.6915 8.35027 9.91615 8.3502 10.1488C8.31623 10.3555 8.34441 10.6389 8.33407 10.8506C8.33407 11.0584 8.33407 11.2841 8.33407 11.4733C8.33407 11.654 8.33407 11.8541 8.33407 12.0158C8.33407 12.1639 8.33407 12.3341 8.33407 12.4626C8.33407 12.6813 8.33407 12.9168 8.33407 13.1169C8.41831 13.8593 8.18389 14.9405 8.49849 15.437Z" />
</svg>
