<svg width="24" height="24" viewBox="0 0 24 24" fill="#F3EDF3" xmlns="http://www.w3.org/2000/svg">
<path d="M2.36288 22.5082C4.91819 22.5082 7.46649 22.5082 10.039 22.5082C12.2224 22.5082 14.3967 22.5082 16.5975 22.5082C16.8431 22.5082 17.1043 22.5082 17.3316 22.5082C17.5395 22.5082 17.7648 22.5082 17.9541 22.5082C19.2908 22.4767 20.7022 22.5597 21.9935 22.4281C22.0846 22.3711 22.1343 22.2458 22.2038 22.1869C22.2605 22.1284 22.3628 22.0882 22.3961 22.0266C22.4821 22.0028 22.471 21.8515 22.4935 21.7847C22.5204 20.4514 22.5027 19.0845 22.5097 17.7129C22.5097 17.5703 22.5097 17.4051 22.5097 17.2821C22.5134 17.1686 22.5117 17.0322 22.4936 16.9609C22.4619 16.8773 22.4403 16.753 22.396 16.7022C21.7893 16.1078 21.2121 15.4994 20.5928 14.899C20.5266 14.7791 20.4003 14.6982 20.3046 14.6268C20.2173 14.555 20.165 14.4269 20.0809 14.3713C20.0033 14.3063 19.9082 14.2396 19.8592 14.1655C19.2583 13.7027 18.9263 12.9639 18.1318 12.6947C18.004 12.658 17.9943 12.4967 18.0097 12.3361C18.0097 12.1825 18.0097 12.0066 18.0097 11.8725C18.0097 11.6701 18.0097 11.4498 18.0097 11.2661C18.1613 10.2689 17.8676 9.70683 17.3362 9.39259C16.793 8.84075 16.2584 8.29914 15.6938 7.75006C15.6491 7.6795 15.5848 7.59893 15.5159 7.57279C15.4572 7.5327 15.4046 7.46158 15.358 7.43021C15.3182 7.37117 15.2612 7.29677 15.2269 7.253C14.8652 7.47111 15.0501 8.3079 14.9938 8.88772C14.8994 9.7364 15.5524 9.82882 15.8408 10.313C16.1489 10.6479 16.6251 10.7909 16.4939 11.584C16.4939 12.2222 16.4938 12.8619 16.4938 13.5002C16.4938 14.1496 16.4938 14.8163 16.4938 15.447C16.4938 16.0108 16.4938 16.5556 16.4938 17.1385C16.4938 17.5826 16.4938 18.0362 16.4938 18.4629C16.4743 18.6643 16.6009 18.7376 16.7652 18.7558C16.9296 18.774 17.1393 18.7451 17.2993 18.7582C17.4595 18.758 17.6418 18.7749 17.7798 18.7515C17.9178 18.7282 18.02 18.656 18.0097 18.4944C18.0097 18.1251 18.0097 17.7453 18.0097 17.3938C18.0097 17.0354 18.0097 16.6655 18.0097 16.3247C18.0097 16.0467 18.0097 15.7547 18.0097 15.4949C17.9813 15.2208 18.0275 15.0193 18.1634 14.9281C18.3804 14.9484 18.4674 15.2615 18.6675 15.3579C18.8127 15.5336 18.9843 15.6932 19.145 15.8355C19.2335 15.998 19.4185 16.0781 19.5275 16.2019C19.5884 16.3381 19.7233 16.4209 19.8158 16.5064C19.9111 16.5647 19.9609 16.6904 20.0394 16.7459C20.1008 16.8053 20.1934 16.8549 20.2293 16.9197C20.2848 16.9519 20.3215 17.0341 20.3579 17.0644C20.3959 17.1252 20.475 17.1734 20.5179 17.2085C20.5736 17.257 20.6411 17.318 20.6762 17.3667C20.7212 17.4205 20.7697 17.5028 20.8222 17.5283C20.8936 17.5832 20.9392 17.6822 20.9788 17.7487C21.0053 18.5999 20.9871 19.4911 20.9938 20.3619C20.9841 20.5221 21.0125 20.7377 20.9782 20.8542C20.918 20.9311 20.854 21.0137 20.7152 20.9922C18.5317 20.9922 16.3567 20.9922 14.156 20.9922C12.058 20.9922 9.94937 20.9922 7.86879 20.9922C7.64472 20.9922 7.40411 20.9922 7.19858 20.9922C7.00696 20.9922 6.79682 20.9922 6.62411 20.9922C6.45964 20.9922 6.27461 20.9922 6.12943 20.9922C5.99223 20.9922 5.83196 20.9922 5.71453 20.9922C5.51208 20.9922 5.29182 20.9922 5.10815 20.9922C4.96003 20.9922 4.7909 20.9922 4.66235 20.9922C4.39832 20.9236 3.98901 20.9946 3.64353 21.0054C3.29807 21.0163 3.02342 20.9745 3.00976 20.6648C3.00976 20.4623 3.00976 20.2424 3.00976 20.0587C3.00976 19.8996 3.00976 19.7196 3.00976 19.58C3.00976 19.4592 3.00976 19.3136 3.00976 19.2129C3.00976 19.1198 3.00976 18.998 3.00976 18.9257C3.00976 18.7939 3.00976 18.6386 3.00976 18.5268C2.80034 17.4238 3.55986 17.2966 3.93343 16.7766C4.03623 16.7041 4.08912 16.5647 4.18736 16.5066C4.2558 16.4269 4.38202 16.3767 4.41354 16.2795C4.47455 16.2142 4.53866 16.1352 4.60179 16.092C4.72177 16.0258 4.80381 15.8988 4.87516 15.8029C4.93781 15.7284 5.04518 15.6769 5.09787 15.6122C5.16049 15.576 5.19217 15.4848 5.23948 15.4541C5.36582 15.4111 5.51076 15.1772 5.64432 15.0359C5.77789 14.8947 5.88868 14.841 5.97809 15.1619C6.0014 16.2508 5.98907 17.3901 5.99377 18.4789C5.97349 18.6035 6.0625 18.6504 6.09048 18.7061C6.16313 18.7925 6.40329 18.7432 6.52789 18.7582C6.63217 18.7582 6.7638 18.7582 6.84751 18.7582C6.93525 18.7582 7.05177 18.7582 7.11839 18.7582C7.45503 18.7917 7.52685 18.5437 7.52229 18.236C7.51773 17.9282 7.4449 17.5547 7.50949 17.3161C7.50949 16.2426 7.50976 15.2015 7.50976 14.0906C7.52089 13.0487 7.49218 11.967 7.54168 10.9634C7.93769 10.478 8.38913 10.0685 8.84802 9.628C9.12885 9.18979 8.95985 8.24061 8.99381 7.59636C8.96494 7.52094 8.95074 7.39723 8.91245 7.35181C8.89939 7.29373 8.8361 7.24237 8.79185 7.23725C8.54448 7.5269 8.25585 7.80014 7.99083 8.053C7.68555 8.38595 7.34248 8.68212 7.04894 9.02683C6.71416 9.37352 6.31998 9.67949 6.05874 10.0812C5.9392 10.6431 6.02545 11.4324 5.99377 12.0636C5.99377 12.1513 5.99377 12.2687 5.99377 12.3353C5.99014 12.4359 6.01481 12.5818 5.96527 12.616C5.70357 12.8037 5.26714 12.8329 5.16446 13.1623C4.89517 13.4173 4.61987 13.6701 4.36825 13.9256C4.18347 14.1688 3.91702 14.3406 3.74578 14.58C3.51557 14.7136 3.39992 14.9712 3.18825 15.1057C3.05505 15.2988 2.85199 15.4366 2.70839 15.6014C2.57807 15.7867 2.34046 15.8793 2.24481 16.0813C2.09277 16.1965 1.94539 16.3293 1.84645 16.4794C1.71841 16.5808 1.55572 16.6697 1.54166 16.8666C1.4687 17.0177 1.50106 17.291 1.49377 17.4892C1.49377 17.6863 1.49377 17.9017 1.49377 18.08C1.49377 18.2553 1.49377 18.4503 1.49377 18.6066C1.49377 18.7657 1.49377 18.9457 1.49377 19.0853C1.49377 19.2444 1.49377 19.4244 1.49377 19.564C1.49377 19.7175 1.49377 19.8927 1.49377 20.0268C1.49377 20.1476 1.49377 20.2931 1.49377 20.3938C1.49377 20.5637 1.49377 20.7538 1.49377 20.9044C1.49377 21.0471 1.49377 21.2123 1.49377 21.3353C1.49024 21.4706 1.49142 21.6265 1.50988 21.7199C1.65344 22.1188 1.89001 22.4386 2.36288 22.5082Z" />
<path d="M11.4242 18.7575C11.5668 18.7575 11.7352 18.7582 11.8582 18.7582C11.9459 18.7582 12.0617 18.7582 12.1283 18.7582C12.6325 18.901 12.7628 18.6573 12.7752 18.3101C12.7876 17.9628 12.6909 17.5058 12.7596 17.2041C12.7596 16.4022 12.7598 15.6129 12.7598 14.7927C12.7598 14.1273 12.7598 13.4449 12.7598 12.7981C12.7598 12.1758 12.7598 11.5533 12.7598 10.931C12.7598 10.3088 12.7598 9.68629 12.7598 9.06401C12.7598 8.48961 12.7598 7.91501 12.7598 7.34061C12.7598 6.88582 12.7598 6.42167 12.7598 5.98423C12.7598 5.62576 12.7598 5.25586 12.7598 4.91508C12.7345 4.76329 12.7717 4.59553 12.8391 4.49549C12.9066 4.39545 12.9897 4.36753 13.0802 4.50457C13.2017 4.69861 13.4015 4.82832 13.5435 4.98404C13.6394 5.15536 13.8465 5.22823 13.9417 5.38199C14.0247 5.5393 14.2212 5.60439 14.3595 5.68798C14.5282 5.77625 14.7063 5.54825 14.8463 5.49642C14.9491 5.37515 15.0545 5.23951 15.1817 5.16114C15.2833 5.08743 15.3358 4.94166 15.4068 4.85646C15.496 4.76362 15.5063 4.61385 15.4058 4.54186C14.4454 3.45459 13.3894 2.46314 12.3743 1.43055C12.3068 1.37729 12.2636 1.27106 12.1965 1.23755C12.1202 1.20956 11.9643 1.22859 11.8879 1.22119C11.5208 1.52892 11.1909 1.86282 10.8472 2.21259C10.4886 2.54469 10.1737 2.90396 9.81012 3.24968C9.54148 3.49459 9.29778 3.77278 9.04422 4.01557C8.83988 4.18577 8.6456 4.38154 8.53171 4.62457C8.58702 4.96027 8.85764 5.18828 9.07581 5.3834C9.17465 5.5625 9.40599 5.63104 9.55998 5.7369C9.71859 5.64448 9.90983 5.56111 10.0287 5.44729C10.2228 5.21335 10.4598 5.01313 10.6507 4.79342C10.7338 4.75681 10.8139 4.62949 10.8946 4.53546C10.9753 4.44146 11.0453 4.38007 11.1341 4.47357C11.3443 4.78756 11.1917 5.46634 11.2438 5.92131C11.2438 6.55466 11.2438 7.2047 11.2438 7.81933C11.2438 8.35633 11.2438 8.91315 11.2438 9.43103C11.2438 9.88582 11.2438 10.35 11.2438 10.7874C11.2438 11.1727 11.2438 11.5687 11.2438 11.9364C11.2438 12.2627 11.2438 12.6013 11.2438 12.9098C11.2438 13.1877 11.2438 13.4797 11.2438 13.7395C11.2438 13.9744 11.2438 14.2253 11.2438 14.4417C11.2438 14.6387 11.2438 14.8539 11.2438 15.0321C11.2438 15.202 11.2438 15.392 11.2438 15.5427C11.2438 15.6854 11.2438 15.8506 11.2438 15.9736C11.2438 16.1815 11.2438 16.4068 11.2438 16.5959C11.2438 16.7494 11.2438 16.9247 11.2438 17.0587C11.329 17.5958 11.0874 18.472 11.4242 18.7575Z" />
</svg>
