<svg width="24" height="24" viewBox="0 0 24 24" fill="#F3EDF3" xmlns="http://www.w3.org/2000/svg">
<path d="M7.88943 20.258C8.93007 20.2058 10.1692 20.4001 10.923 20.0018C10.9885 19.9693 11.0913 19.9473 11.1436 19.9222C11.9911 19.56 12.7871 20.0457 13.5059 20.2101C14.3745 20.2667 15.5421 20.3042 16.3805 20.178C17.0506 19.9426 17.769 19.7655 18.3708 19.443C18.8399 19.0878 19.426 18.8475 19.7926 18.3884C20.199 18.0929 20.489 17.6949 20.8025 17.287C21.1036 17.0119 21.2437 16.5908 21.4818 16.2329C21.5342 15.8098 21.8687 15.6579 21.8931 15.2239C21.9275 14.8573 22.1074 14.6289 22.177 14.3156C22.2577 13.9425 22.2675 13.486 22.256 13.037C22.256 12.6357 22.256 12.2242 22.256 11.8404C22.2186 11.4448 22.1834 11.0322 22.0342 10.7673C21.8944 10.5127 21.8969 10.1041 21.7659 9.85795C20.7123 7.38851 18.7739 5.79575 15.8427 5.24201C14.8021 5.29427 13.563 5.09984 12.8092 5.49817C12.7437 5.53071 12.6409 5.55264 12.5886 5.5778C11.7411 5.93997 10.9451 5.45421 10.2263 5.28994C9.35767 5.23326 8.19026 5.19562 7.35183 5.32197C6.66425 5.53606 5.9619 5.73856 5.37736 6.05686C4.87171 6.37516 4.33878 6.66904 3.93991 7.09535C3.54863 7.41315 3.21426 7.80615 2.92942 8.21316C2.62835 8.48838 2.48843 8.90911 2.25045 9.26708C2.20035 9.68723 1.87108 9.83885 1.83908 10.26C1.80196 10.6345 1.62767 10.879 1.55525 11.2003C1.47088 11.5698 1.46682 12.032 1.47617 12.4789C1.47617 12.8748 1.47616 13.2811 1.47616 13.6596C1.51587 14.0475 1.54364 14.4624 1.69812 14.7168C2.57548 17.7637 4.64311 19.6238 7.88943 20.258ZM9.53049 18.6622C9.40941 18.6879 9.2258 18.6721 9.10472 18.6782C8.97447 18.6782 8.82121 18.6782 8.71062 18.6782C7.51674 18.6314 6.65685 18.2666 5.85852 17.8015C4.96928 17.31 4.33295 16.5961 3.81007 15.6977C3.7457 15.6366 3.72307 15.5098 3.68416 15.4429C3.66465 15.3584 3.62646 15.2642 3.58885 15.2185C3.56081 15.1591 3.50497 15.0999 3.47889 15.0597C3.28843 14.2152 2.88866 13.5883 3.03817 12.3999C3.17021 11.2442 3.45352 10.2916 4.03078 9.53126C4.37575 8.82707 4.93569 8.34388 5.54352 7.90553C6.04958 7.58364 6.51614 7.23902 7.2138 7.09277C7.72032 6.88256 8.2831 6.7479 9.08878 6.82181C9.181 6.82181 9.30221 6.8218 9.37375 6.8218C9.47613 6.80598 9.55166 6.84513 9.62484 6.83774C9.68309 6.85551 9.78146 6.86118 9.82803 6.86922C9.91251 6.92427 9.88613 6.96407 9.83958 7.01459C9.79302 7.06513 9.7212 7.11736 9.71249 7.16338C9.68363 7.41752 9.47189 7.49351 9.33634 7.62166C9.00023 7.88807 8.82249 8.31704 8.54637 8.6441C8.453 8.97935 7.98884 9.28665 8.1674 9.65863C8.50538 9.82151 9.28755 9.75055 9.67508 9.70981C10.0671 9.50502 10.1895 9.00463 10.4986 8.73476C10.7541 8.51169 10.9631 8.23392 11.2395 8.04913C11.4391 7.89961 11.7762 7.68163 12.1316 7.84263C12.4134 7.91616 12.5339 8.16267 12.7618 8.27303C12.9493 8.38813 13.019 8.6353 13.2192 8.71974C13.3549 8.83357 13.4007 9.05233 13.5498 9.13421C13.6466 9.24423 13.7116 9.39758 13.768 9.52974C13.8244 9.66967 14.0054 9.71234 14.1524 9.74188C14.3249 9.77531 14.5745 9.74965 14.7533 9.75798C14.9321 9.75798 15.1299 9.75798 15.2898 9.75798C15.4812 9.76537 15.5822 9.65134 15.6439 9.54653C15.5864 9.40768 15.543 9.22891 15.4863 9.10805C15.4103 9.01502 15.2963 8.94249 15.2661 8.82241C15.2181 8.72277 15.1654 8.60142 15.1068 8.53219C15.0588 8.45445 14.9804 8.38315 14.9332 8.32468C14.8464 8.22079 14.8112 8.04528 14.7276 7.95715C14.6551 7.88774 14.5373 7.84433 14.492 7.76708C14.4457 7.70418 14.3974 7.61407 14.3487 7.57395C14.3157 7.52514 14.2206 7.51411 14.2087 7.46531C14.0333 7.40244 14.0677 7.10357 13.9052 7.04609C13.8054 6.95771 13.8396 6.91247 13.9194 6.87682C13.9992 6.84118 14.1213 6.83019 14.2017 6.83777C14.3228 6.81209 14.5064 6.82792 14.6275 6.82181C14.7577 6.82181 14.911 6.82181 15.0216 6.82181C16.2155 6.86857 17.0754 7.23329 17.8736 7.69845C18.7629 8.18992 19.3992 8.90394 19.9221 9.80225C19.9865 9.8634 20.009 9.99015 20.048 10.057C20.0676 10.1416 20.1058 10.2358 20.1433 10.2814C20.1714 10.3408 20.2273 10.4 20.2533 10.4403C20.4437 11.2848 20.8435 11.9117 20.694 13.1C20.5621 14.2557 20.2787 15.2084 19.7014 15.9688C19.3565 16.673 18.7965 17.1562 18.1887 17.5945C17.6826 17.9164 17.216 18.2609 16.5184 18.4072C16.0118 18.6174 15.4491 18.7521 14.6434 18.6782C14.5512 18.6782 14.43 18.6782 14.3584 18.6782C14.2561 18.694 14.1805 18.6549 14.1074 18.6622C14.0491 18.6445 13.9507 18.6388 13.9042 18.6308C13.8197 18.5757 13.8461 18.5358 13.8926 18.4854C13.9392 18.4348 14.011 18.3826 14.0197 18.3365C14.0486 18.0825 14.2603 18.0065 14.3959 17.8782C14.732 17.6119 14.9097 17.183 15.1858 16.8558C15.2792 16.5206 15.7434 16.2134 15.5648 15.8413C15.2268 15.6785 14.4446 15.7494 14.0571 15.7902C13.6651 15.9949 13.5427 16.4954 13.2336 16.7652C12.9781 16.9883 12.7691 17.2661 12.4927 17.4509C12.2931 17.6004 11.956 17.8184 11.6006 17.6574C11.3188 17.5838 11.1983 17.3373 10.9704 17.227C10.7828 17.1118 10.7132 16.8646 10.513 16.7802C10.3773 16.6664 10.3315 16.4476 10.1824 16.3658C10.0856 16.2557 10.0206 16.1023 9.96421 15.9702C9.90776 15.8303 9.72677 15.7876 9.57978 15.7581C9.40731 15.7247 9.15765 15.7503 8.97889 15.742C8.80013 15.742 8.60229 15.742 8.4424 15.742C8.25099 15.7346 8.14998 15.8486 8.08826 15.9534C8.1458 16.0923 8.18917 16.271 8.24586 16.392C8.32188 16.485 8.43588 16.5574 8.46614 16.6776C8.51409 16.7772 8.56676 16.8986 8.62542 16.9679C8.6734 17.0456 8.75177 17.1169 8.79903 17.1753C8.88575 17.2792 8.92098 17.4547 9.0046 17.5428C9.07706 17.6122 9.19493 17.6556 9.24019 17.7329C9.28653 17.7957 9.33482 17.8859 9.38351 17.9261C9.41654 17.9748 9.51156 17.9858 9.52352 18.0346C9.69892 18.0975 9.66451 18.3964 9.82704 18.4538C9.92684 18.5422 9.8926 18.5875 9.81281 18.6231C9.73303 18.6589 9.61094 18.6697 9.53049 18.6622Z" />
<path d="M7.58746 13.5075C7.99483 13.5075 8.41504 13.508 8.80514 13.508C9.15427 13.508 9.51485 13.508 9.84649 13.508C10.1479 13.508 10.4622 13.508 10.7458 13.508C11.0047 13.508 11.2781 13.508 11.519 13.508C11.7565 13.508 12.0096 13.508 12.229 13.508C12.4559 13.508 12.6989 13.508 12.9075 13.508C13.1237 13.508 13.3565 13.508 13.5544 13.508C13.7438 13.508 13.9516 13.508 14.1224 13.508C14.2688 13.508 14.437 13.508 14.5642 13.508C14.6781 13.508 14.8173 13.508 14.9113 13.508C15.0739 13.508 15.2569 13.508 15.4004 13.508C15.5252 13.508 15.6743 13.508 15.7794 13.508C15.8999 13.4982 16.085 13.525 16.1619 13.4909C16.3809 13.2742 16.3984 12.1831 16.1447 11.9925C15.7374 11.9925 15.3172 11.992 14.9271 11.992C14.5779 11.992 14.2173 11.992 13.8857 11.992C13.5843 11.992 13.27 11.992 12.9863 11.992C12.7275 11.992 12.4541 11.992 12.2132 11.992C11.9757 11.992 11.7226 11.992 11.5032 11.992C11.2763 11.992 11.0333 11.992 10.8247 11.992C10.6085 11.992 10.3757 11.992 10.1778 11.992C9.98837 11.992 9.78059 11.992 9.60982 11.992C9.46337 11.992 9.29516 11.992 9.16803 11.992C9.05405 11.992 8.91486 11.992 8.82091 11.992C8.65829 11.992 8.47534 11.992 8.33179 11.992C8.20695 11.992 8.05785 11.992 7.9528 11.992C7.83224 12.0018 7.64726 11.975 7.57037 12.0091C7.35137 12.2258 7.33385 13.3168 7.58746 13.5075Z" />
</svg>
