<svg width="24" height="24" viewBox="0 0 24 24" fill="#F3EDF3" xmlns="http://www.w3.org/2000/svg">
<path d="M10.2623 22.6195C10.4132 22.6003 10.449 22.4358 10.5082 22.3444C10.5082 19.6538 10.5093 16.9746 10.5093 14.2498C10.5093 14.0257 10.5093 13.7851 10.5093 13.5796C10.5093 13.388 10.5093 13.1778 10.5093 13.0051C10.5093 12.857 10.5093 12.6869 10.5093 12.5583C10.4651 12.4436 10.3815 12.3368 10.2983 12.2804C9.24783 11.6289 8.16015 11.0136 7.07458 10.3972C6.92632 10.2998 6.79558 10.1666 6.60977 10.1251C6.44409 10.0721 6.31804 9.96708 6.21379 9.87125C6.10384 9.80585 5.97104 9.74008 5.86047 9.69445C5.74376 9.65759 5.64692 9.58472 5.59239 9.50513C5.51152 9.46523 5.41818 9.40705 5.33348 9.39111C5.25152 9.3523 5.15538 9.3062 5.09637 9.26457C4.98167 9.18224 4.88492 9.06054 4.75909 9.00816C4.63754 8.9816 4.51443 8.93707 4.44165 8.88129C4.35846 8.8492 4.29417 8.7731 4.23444 8.73781C4.19495 8.70615 4.13203 8.66036 4.08628 8.65672C3.8634 8.68231 3.7723 8.51216 3.7525 8.30337C3.73269 8.09457 3.79036 7.86036 3.88504 7.76037C4.54555 6.60935 5.35576 5.62096 6.38926 4.82524C6.48147 4.74754 6.56299 4.64095 6.65938 4.58663C6.75371 4.53828 6.85435 4.47491 6.94584 4.44339C7.03 4.40131 7.09172 4.31047 7.15464 4.26714C7.89088 3.8242 8.65943 3.44883 9.62579 3.19902C10.8618 2.82769 12.545 2.88465 13.963 3.05562C14.0824 3.07343 14.2027 3.10922 14.2791 3.15028C14.355 3.2061 14.4677 3.25172 14.5524 3.27882C14.6471 3.29944 14.7513 3.33654 14.8401 3.34276C15.6428 3.64 16.4257 3.91865 17.0391 4.44242C17.8309 4.86957 18.4111 5.5221 19.0007 6.13292C19.4386 6.6719 19.7986 7.2742 20.1806 7.8869C20.217 7.97682 20.2612 8.07679 20.2433 8.20081C20.2401 8.29088 20.2564 8.42356 20.229 8.4684C19.824 8.72241 19.4198 8.95566 18.9867 9.20032C18.4898 9.48946 17.9833 9.75448 17.5026 10.078C16.9566 10.3257 16.5066 10.6837 15.971 10.9236C15.5019 11.2363 14.983 11.5005 14.4863 11.7857C14.0772 12.1149 13.3674 12.1394 13.4934 13.0222C13.4934 13.6764 13.4933 14.3297 13.4933 14.9839C13.4933 15.4974 13.4933 16.0193 13.4933 16.5158C13.4933 16.9224 13.4933 17.3393 13.4933 17.7285C13.4933 18.0494 13.4933 18.383 13.4933 18.686C13.4933 18.9424 13.4933 19.2139 13.4933 19.4519C13.4933 19.6923 13.4933 19.9482 13.4933 20.17C13.4933 20.4372 13.4933 20.719 13.4933 20.9679C13.4933 21.2135 13.4933 21.4747 13.4933 21.7019C13.4933 21.8936 13.4933 22.1038 13.4933 22.2764C13.5169 22.4173 13.5881 22.5442 13.6743 22.6031C13.8341 22.6023 14.0595 22.5735 14.205 22.5396C14.3514 22.5161 14.5243 22.4992 14.6516 22.4757C14.7904 22.4556 14.9383 22.4202 15.0211 22.3632C15.124 22.3289 15.2032 22.2498 15.307 22.2362C15.3925 22.1843 15.5412 22.1725 15.6264 22.1403C16.6121 21.7921 17.4955 21.353 18.2774 20.7828C19.7351 19.6876 20.9514 18.3445 21.7746 16.6149C21.8062 16.4009 21.9043 16.2405 22.0129 16.1218C22.5002 14.6085 23.07 12.6954 22.7006 10.642C22.6799 10.4496 22.6476 10.2505 22.6047 10.0987C22.575 9.94774 22.5331 9.79163 22.5253 9.6377C22.501 9.50301 22.4759 9.34736 22.4614 9.22228C22.4305 9.11602 22.3842 8.99876 22.3489 8.9166C22.2889 8.85031 22.2481 8.74195 22.2216 8.6621C22.1777 8.58529 22.1739 8.44238 22.1415 8.37411C21.8541 7.54938 21.4933 6.77926 21.0559 6.12306C20.36 5.03392 19.4587 4.15697 18.4528 3.3603C18.3428 3.30028 18.2512 3.20379 18.1824 3.12181C18.09 3.06609 17.9822 3.00041 17.8933 2.96076C17.0702 2.47233 16.2899 1.96898 15.1953 1.71561C15.1041 1.67508 15.0102 1.61253 14.9231 1.58773C13.7042 1.43866 12.614 1.00766 11.1548 1.22058C11.0141 1.22803 10.8778 1.2623 10.7714 1.28446C9.67217 1.38191 8.8063 1.71526 7.88139 1.98705C7.08034 2.40928 6.22008 2.77602 5.56544 3.34466C4.92313 3.78075 4.44878 4.33388 3.85745 4.87705C3.43563 5.36103 3.07801 5.92491 2.70744 6.44216C2.47466 6.9636 2.21678 7.44644 1.95687 7.95912C1.89722 8.55847 1.60686 8.91299 1.50938 9.49318C1.41181 10.045 1.30192 10.602 1.22212 11.1529C1.1505 11.736 1.15512 12.5362 1.23808 13.118C1.33938 13.6281 1.45519 14.1056 1.52529 14.6657C1.5915 15.1686 1.89266 15.4552 1.92419 15.9739C2.19961 16.2279 2.20649 16.7652 2.45255 17.0315C2.58706 17.3784 2.7887 17.6663 2.97877 17.9405C3.15524 18.2135 3.36411 18.4635 3.53728 18.7224C3.7141 18.9469 3.907 19.1685 4.11305 19.3463C4.29912 19.5186 4.48785 19.6993 4.63936 19.8885C4.84874 19.9894 4.90036 20.2645 5.13621 20.3208C5.27203 20.4469 5.37848 20.6176 5.56756 20.6722C5.72074 20.7539 5.82411 20.9004 5.96581 20.9751C6.09674 21.0357 6.25571 21.0818 6.33007 21.1803C6.40668 21.2735 6.50969 21.368 6.6537 21.3747C6.76111 21.4262 6.90784 21.4533 6.96889 21.5318C7.05492 21.5831 7.12692 21.6772 7.22785 21.6936C7.31182 21.7305 7.42102 21.7666 7.49883 21.7894C7.56701 21.8144 7.64873 21.8524 7.70492 21.8685C7.74155 21.9142 7.80749 21.9598 7.84821 21.9801C7.93402 22.0533 8.06479 22.1068 8.20234 22.1089C8.87717 22.2917 9.44881 22.5933 10.2623 22.6195ZM8.82141 20.3069C8.28205 20.2715 7.97702 19.9361 7.52093 19.7799C7.21807 19.5244 6.80187 19.386 6.53386 19.0955C6.31003 18.8218 5.95161 18.6743 5.73617 18.4096C5.52005 18.1816 5.27441 17.9746 5.13025 17.6922C4.87638 17.5714 4.84556 17.213 4.60178 17.0998C4.49793 16.8774 4.37201 16.6671 4.22008 16.5105C4.11636 16.3308 4.08889 16.0602 3.94829 15.9355C3.83241 15.8057 3.76564 15.618 3.72724 15.4291C3.69211 15.2564 3.61659 15.1035 3.55089 14.98C3.48021 14.8699 3.43564 14.7175 3.40809 14.5833C3.37121 14.472 3.35914 14.3131 3.32811 14.2155C3.32144 14.085 3.26766 13.981 3.26463 13.8666C3.22553 13.7631 3.18406 13.6344 3.13585 13.5596C3.11576 13.4479 3.05603 13.3585 3.07308 13.2296C2.98446 12.3113 2.93567 11.068 3.24755 10.2965C3.31212 10.2733 3.40236 10.254 3.45096 10.236C3.6545 10.1559 3.67458 10.3962 3.81321 10.4118C4.04375 10.5076 4.2658 10.621 4.41733 10.7779C4.84062 10.8361 4.98459 11.1853 5.36066 11.2734C5.63125 11.3827 5.77852 11.6262 6.07869 11.6883C6.28748 11.7843 6.4015 11.989 6.6538 12.0236C6.85019 12.089 6.96604 12.2481 7.13129 12.3264C7.35425 12.3975 7.55303 12.5022 7.68731 12.6439C7.86114 12.7642 8.13173 12.799 8.24482 12.9619C8.35004 13.0862 8.56833 13.12 8.71114 13.1881C8.88452 13.2388 8.93806 13.4154 8.97757 13.5814C9.0111 13.8635 8.98303 14.218 8.99332 14.5054C8.99332 14.7726 8.99332 15.054 8.99332 15.303C8.99332 15.5325 8.99332 15.7782 8.99332 15.9892C8.99332 16.1863 8.99332 16.4014 8.99332 16.5796C8.99332 16.7441 8.99332 16.9291 8.99332 17.0743C8.99332 17.2115 8.99332 17.3717 8.99332 17.4892C8.99332 17.6917 8.99332 17.9119 8.99332 18.0956C8.90878 18.8089 9.15132 19.8391 8.82141 20.3069ZM15.224 20.3057C14.8658 20.2382 15.058 19.574 15.0093 19.1797C15.0093 18.8105 15.0093 18.4311 15.0093 18.0796C15.0093 17.748 15.0093 17.4041 15.0093 17.0902C15.0093 16.7318 15.0093 16.3619 15.0093 16.0211C15.0093 15.6519 15.0093 15.2716 15.0093 14.92C15.0093 14.6367 15.0093 14.3395 15.0093 14.0743C15.005 13.8405 14.9962 13.5907 15.0722 13.4557C15.1172 13.1798 15.4264 13.1616 15.6278 13.0599C15.7958 12.9284 15.9508 12.7736 16.1844 12.7256C16.3853 12.6486 16.4735 12.4451 16.6947 12.4065C16.8734 12.345 17.0298 12.2402 17.1449 12.1334C17.262 12.0373 17.4573 12.0044 17.5745 11.927C17.6989 11.8707 17.7699 11.743 17.8926 11.704C17.9933 11.6456 18.1259 11.5977 18.2282 11.5602C18.3069 11.5071 18.3873 11.4283 18.4379 11.3671C18.5201 11.312 18.6439 11.2802 18.7224 11.2413C18.8662 11.1989 19.002 11.1239 19.0767 11.0314C19.145 10.9462 19.2568 10.8899 19.3757 10.8746C19.4724 10.8342 19.5886 10.7849 19.6502 10.7292C19.7003 10.686 19.7573 10.6264 19.8066 10.6033C20.1792 10.5824 20.3094 10.0878 20.6948 10.2836C20.9989 10.4128 20.8636 10.9827 20.9779 11.2845C21.0115 11.7003 20.983 12.1847 20.9933 12.6064C20.885 12.9315 20.9953 13.4782 20.8034 13.7024C20.69 13.9902 20.6525 14.3688 20.5786 14.6788C20.506 14.9807 20.3045 15.1655 20.2593 15.4773C19.2364 17.7501 17.6059 19.4089 15.224 20.3057Z" />
<path d="M11.809 10.1408C12.0764 10.1571 12.2966 10.1096 12.5445 10.1248C12.7221 10.0837 12.8969 10.0142 12.981 9.89834C13.0879 9.79198 13.2759 9.7522 13.3786 9.66035C13.4847 9.59653 13.5059 9.42478 13.5716 9.3397C13.626 9.25147 13.7203 9.17916 13.7636 9.09944C13.8172 9.01578 13.8551 8.89043 13.8762 8.79406C13.8756 8.64544 13.8693 8.46895 13.8921 8.3632C13.915 7.11263 13.276 6.52263 12.1937 6.35889C11.9313 6.34214 11.7159 6.38926 11.4742 6.37482C11.2865 6.41115 11.1095 6.48352 11.0217 6.60121C10.9105 6.70876 10.7206 6.75191 10.608 6.83934C10.5152 6.92187 10.4679 7.07393 10.4145 7.17679C10.3507 7.25559 10.2739 7.3432 10.2234 7.41563C10.1825 7.51196 10.1327 7.62767 10.1263 7.73872C10.1318 7.88685 10.126 8.04548 10.1104 8.15293C10.0927 9.3939 10.7365 9.99 11.809 10.1408Z" />
</svg>
